# xmcd
#
# Track frame offsets: 
#        150
#        19250
#        46100
#        66950
#        91700
#        111875
#        137300
#        162725
#        184175
#        204500
#
# Disc length: 3126 seconds
#
# Revision: 3
# Processed by: cddbd v1.5.2PL0 Copyright (c) Steve Scherf et al.
# Submitted via: ExactAudioCopy v0.99pb4
#
DISCID=820c340a
DTITLE=Koko Taylor and Her Blues Machine - An audience with the queen 
DTITLE=(Live from Chicago)
DYEAR=1987
DGENRE=Blues
TTITLE0=Let The Good Times Roll
TTITLE1=I'm A Woman
TTITLE2=Going Back to Iuka
TTITLE3=The Devil's Gonna Have A Field Day
TTITLE4=Find A Fool, Bump Her Head
TTITLE5=I Cried Like A Baby
TTITLE6=Come To Mama
TTITLE7=I'd Rather Go Blind
TTITLE8=Let Me Love You
TTITLE9=Wang Dang Doodle
EXTD=YEAR: 1987 ID3G: 0
EXTT0=
EXTT1=
EXTT2=
EXTT3=
EXTT4=
EXTT5=
EXTT6=
EXTT7=
EXTT8=
EXTT9=
PLAYORDER=
